PathFileType	4	(X/Y/Z)	Patient4_TMGait_0pt6_01_right_23.trc.trc
DataRate	CameraRate	NumFrames	NumMarkers	Units	OrigDataRate	OrigDataStartFrame	OrigNumFrames
82.840236686391	82.840236686391	4	33	mm	82.840236686391	53	       141
Frame#	Time	Sacral			L.Shoulder			Chest			R.Shoulder			Neck			R.ASIS			L.ASIS			R.Thigh.Superior			R.Thigh.Lateral			R.Thigh.Inferior			R.Patella			L.Thigh.Superior			L.Thigh.Lateral			L.Thigh.Inferior			L.Patella			L.Shank.Superior			L.Shank.Lateral			L.Shank.Inferior			R.Shank.Superior			R.Shank.Lateral			R.Shank.Inferior			R.Heel			R.Midfoot.Superior			R.Midfoot.Lateral			R.Toe			L.Heel			L.Midfoot.Lateral			L.Midfoot.Superior			L.Toe			L.Elbow			L.Wrist			R.Elbow			R.Wrist			
		X1	Y1	Z1	X2	Y2	Z2	X3	Y3	Z3	X4	Y4	Z4	X5	Y5	Z5	X6	Y6	Z6	X7	Y7	Z7	X8	Y8	Z8	X9	Y9	Z9	X10	Y10	Z10	X11	Y11	Z11	X12	Y12	Z12	X13	Y13	Z13	X14	Y14	Z14	X15	Y15	Z15	X16	Y16	Z16	X17	Y17	Z17	X18	Y18	Z18	X19	Y19	Z19	X20	Y20	Z20	X21	Y21	Z21	X22	Y22	Z22	X23	Y23	Z23	X24	Y24	Z24	X25	Y25	Z25	X26	Y26	Z26	X27	Y27	Z27	X28	Y28	Z28	X29	Y29	Z29	X30	Y30	Z30	X31	Y31	Z31	X32	Y32	Z32	X33	Y33	Z33	

53	28.047714285714	641.176396580994	1012.686047730161	557.974950751283	789.464920373605	1442.111130915881	370.291202057996	913.224375953828	1373.394351357217	515.539849973881	851.866976185404	1440.940883657642	700.160769009878	790.498315339330	1499.559757083125	527.721196039992	875.110365185357	946.758054746965	656.290966596301	840.815970657318	968.535367107401	384.653694512036	892.621714860491	738.565974033058	623.977005654787	802.572259130110	635.665664100097	685.715814228621	869.239590444396	579.075496491815	602.551059225330	860.913873742215	494.711394187268	606.210887506314	928.649447637305	789.963804472560	407.813568412043	885.249412735885	663.080320114013	328.232707263268	993.528353195835	604.894317115529	381.575039454513	1015.100262460699	523.426860467376	372.443725688558	969.960594854773	447.732057665219	365.523824601475	850.481146371298	360.422579765561	320.584757669923	887.733862985837	233.839743239939	371.586894656348	834.902900411479	407.090786064525	610.445237676801	765.051973628969	300.112457222000	667.157063053143	810.184469533766	208.728911054627	600.756371506867	677.717309620284	42.613164444271	562.827174041696	850.034168207074	97.641712457334	600.062855302538	761.237224823936	36.162346223292	637.330796873512	969.355170257964	44.872015831135	624.848150894212	736.655009542779	99.803205574906	414.303112637300	801.335619387558	86.465536541630	328.180296185603	896.293189292930	132.918414257325	346.329577144285	1008.402436661818	62.340229797853	305.753493443621	713.786833256928	1090.225683111752	266.939401657103	734.604072846769	831.290855631521	267.867526445104	939.758676636607	1104.961444899972	820.874078522760	1181.739313831205	1025.610390518776	781.236471138188	
54	28.059785714286	639.503607519656	1012.635501229430	559.046027097316	787.863816148255	1441.706429419759	370.874266785068	912.593966557132	1372.488657476070	515.046655711018	852.975438598735	1440.238986711270	700.179469353413	790.370122400218	1499.033129871677	528.172229827988	874.086846769102	946.020998944197	655.945467175231	838.325668770224	968.065236914915	384.369928498233	889.676425740712	737.618279691256	623.018564038601	799.539465208741	635.172295182119	685.756623444078	864.880563953793	578.264603035287	602.004198968879	855.918508424977	493.937965837699	605.681836978427	926.335780149502	790.089777174248	408.618815283051	884.112796191966	663.274977616414	328.472097620890	991.391368733939	605.138870619936	383.504358618698	1014.460766019642	525.760577425043	373.932522994881	973.407638779755	449.776401482848	365.776385124834	860.396196585941	355.312690353911	319.338974806284	905.758403362944	230.957585435274	369.754552460852	829.435410239402	406.477444729894	610.088175023033	759.433912146706	299.739019642985	667.139224913049	803.582878133677	208.226945118170	600.364032876976	670.395860355906	42.491652752359	562.760940253698	842.588649397428	97.491171516113	599.849111175942	753.898556090640	36.124711016328	637.290088320210	962.019520684026	44.817570286059	624.817909494664	763.894521204735	87.140928053629	410.661539545727	830.019466271636	78.382739651200	324.974791665175	921.596309958777	130.688285444062	344.048777906560	1038.292812007649	67.464131549463	304.152642960231	704.123037273226	1091.761906079403	268.328358865692	717.662074160653	832.444650101342	269.873290189247	947.861426523105	1106.756106533212	820.377590856606	1193.218568138899	1041.123902222810	778.289979538829	
55	28.071857142857	637.954106315943	1012.482025920518	560.043048907115	786.303676927495	1441.263539680016	371.328057193727	911.967936013635	1371.527189128063	514.428378467448	854.038587782809	1439.425265732788	700.056420949082	790.249939895735	1498.446189630602	528.498259361306	873.188417778956	945.271904817357	655.504780000474	835.904747849152	967.436551801825	383.969722591866	886.968593228863	736.659219882056	622.222701722796	796.627519613857	634.675863152195	685.823979008637	860.681208138809	577.437404789075	601.549779040755	851.054125762794	493.152025104400	605.222919749561	923.678386530428	789.593380611728	409.274203193491	882.277621814504	663.026925414114	328.536810743054	988.426045363147	604.675959781384	385.331997701793	1012.895186375949	527.561889884906	375.339196460911	975.976933399046	451.674655031416	366.008160577749	870.020978956133	350.351170800674	318.127683547565	923.444545057203	228.890364982651	368.151375966352	824.057455498657	405.854558187781	609.796090367148	753.866621508024	299.382777420326	667.192292866543	796.999315334993	207.731769251876	600.038471518237	663.072383583671	42.396361136233	562.720578099821	835.150004278948	97.337816510669	599.652122129090	746.565920731832	36.078243695795	637.249384284763	954.688169663317	44.741282561460	624.785061431641	791.505180099266	75.951064534174	407.403410040143	858.925250416731	71.602293913176	322.259751449065	946.743098480040	129.572592683797	342.172427209205	1067.608076188179	73.824346999542	303.294024199280	695.018247063371	1093.320249566097	269.775021322563	701.411259059105	833.843249424252	271.880256054077	955.616405766341	1108.496992756315	819.611700026032	1203.528763923282	1056.305655979137	775.293283428352	
56	28.083928571429	636.583365263913	1012.242339200558	560.977138061633	784.796352148222	1440.808143093670	371.639629457439	911.346155991848	1370.557243030713	513.692410611671	855.026440010795	1438.550025980028	699.787298717846	790.124394390073	1497.830668902290	528.686021351742	872.433836285613	944.536167939791	654.972962100072	833.568835440213	966.688966095975	383.476281531973	884.498942278389	735.697995754186	621.598701841364	793.800725706544	634.200697040018	685.908252156518	856.606500104924	576.601135092411	601.191151632408	846.283729446361	492.373436503671	604.839314494246	920.711117329868	788.543289529441	409.745028867202	879.778720673897	662.387129719749	328.400627415580	984.771658590925	603.623246321339	386.934089307530	1010.531442795469	528.902894107149	376.586755089178	977.731765904219	453.465117103324	366.185408994384	879.261774446520	345.689847629459	316.996414493971	940.561939865990	227.739849168577	366.806975509781	818.730334101284	405.243406200195	609.570360550109	748.314587979203	299.069199489362	667.314763950221	790.426521499185	207.267563089035	599.791117160416	655.747964211296	42.332007363076	562.709307222156	827.727946630501	97.189648187061	599.484764016938	739.240514849713	36.025019470922	637.209856812529	947.363132747200	44.648999473383	624.752788921276	819.037555558366	66.508180604604	404.670297985528	887.592908415233	66.264005558793	320.144513054194	971.381397563316	129.617448019670	340.726474973808	1095.942129615601	81.298896527464	303.166658734697	686.513821533271	1094.879532736506	271.263713953261	685.917654307477	835.451444385147	273.883271159852	962.996719405119	1110.198679949255	818.568417242946	1212.692922274445	1071.017619771781	772.268586271742	
